Coordinates
version=1
nRows=22
nColumns=24
inDegrees=yes

Units are S.I. units (second, meters, Newtons, ...)
Angles are in degrees.

endheader
time	pelvis_tilt	pelvis_list	pelvis_rotation	pelvis_tx	pelvis_ty	pelvis_tz	hip_flexion_r	hip_adduction_r	hip_rotation_r	knee_angle_r	ankle_angle_r	subtalar_angle_r	mtp_angle_r	hip_flexion_l	hip_adduction_l	hip_rotation_l	knee_angle_l	ankle_angle_l	subtalar_angle_l	mtp_angle_l	lumbar_extension	lumbar_bending	lumbar_rotation
      4.71000000	    -15.07699237	     11.75783529	     -7.18187415	      0.61565943	     -0.01935215	     -0.02809885	     19.93209448	    -17.63818648	     -3.90628329	    -56.47305215	    -24.72379308	      8.10288313	     42.84055285	     26.22213134	     10.69984265	    -16.01802206	     -7.19733478	    -12.29739486	      3.97192372	      9.87860282	     15.08728349	    -14.77301183	      8.15171480
      4.71500000	    -14.93247185	     11.69341092	     -7.12277989	      0.62128177	     -0.01858262	     -0.02889080	     20.49594713	    -17.60329458	     -3.72935762	    -57.43973366	    -24.19260799	      8.22986213	     43.13754525	     25.62072560	     10.82074244	    -15.91454417	     -7.03064338	    -11.99892089	      4.23173482	     10.02515605	     14.91639467	    -14.71719875	      7.87911533
      4.72000000	    -14.79343658	     11.58886097	     -7.04015644	      0.62692011	     -0.01780302	     -0.02973617	     21.03432467	    -17.53042834	     -3.59157738	    -58.32687255	    -23.71127479	      8.47329212	     43.55270458	     25.01759125	     10.91180389	    -15.77179417	     -6.86884544	    -11.68476990	      4.47310705	     10.16205800	     14.74542826	    -14.61885800	      7.57631762
      4.72500000	    -14.58914892	     11.46127959	     -6.98486410	      0.63255646	     -0.01692144	     -0.03053377	     21.48230254	    -17.42936767	     -3.46786790	    -59.09430563	    -23.34301177	      8.63473642	     44.58381116	     24.33987815	     10.97672867	    -15.67172637	     -6.70976909	    -11.33765546	      4.77910567	     10.23748649	     14.51076735	    -14.50065963	      7.27729665
      4.73000000	    -14.51402124	     11.28897536	     -6.84461845	      0.63821030	     -0.01618723	     -0.03145345	     22.03115448	    -17.28116579	     -3.40163352	    -59.85099038	    -22.89318774	      9.11134509	     44.99354491	     23.79696896	     11.00806984	    -15.40797905	     -6.56602629	    -11.04472460	      4.91717956	     10.35832422	     14.40102647	    -14.33108205	      6.91628496
      4.73500000	    -14.31940592	     11.14027967	     -6.70688643	      0.64378254	     -0.01532295	     -0.03239528	     22.43875913	    -17.18657555	     -3.36369219	    -60.48886103	    -22.55269818	      9.50831686	     46.20983346	     23.12908423	     11.08515230	    -15.14806871	     -6.41650198	    -10.75838275	      5.07618138	     10.33211180	     14.15001692	    -14.20558822	      6.51905730
      4.74000000	    -14.26023414	     10.91039040	     -6.56522509	      0.64938000	     -0.01458291	     -0.03330808	     22.97015277	    -16.95204231	     -3.30383957	    -61.11182951	    -22.13323772	     10.12842052	     46.64097187	     22.60302097	     11.04570582	    -14.86831229	     -6.28514685	    -10.45734791	      5.20725050	     10.44131573	     14.05479680	    -13.96827727	      6.14964753
      4.74500000	    -14.06664685	     10.72947543	     -6.37718771	      0.65490992	     -0.01373230	     -0.03431688	     23.32885312	    -16.83241283	     -3.32831259	    -61.62371844	    -21.77500139	     10.64925043	     47.90635952	     21.93606442	     11.10327357	    -14.50100846	     -6.15221618	    -10.18285353	      5.28636624	     10.33643225	     13.79239989	    -13.81793135	      5.69814397
      4.75000000	    -14.01799017	     10.47639400	     -6.21846541	      0.66045545	     -0.01301569	     -0.03524590	     23.83941384	    -16.56099713	     -3.28561136	    -62.12595881	    -21.34416693	     11.35306553	     48.34497202	     21.42602389	     11.03657563	    -14.21228293	     -6.02937916	     -9.89395668	      5.39932583	     10.42300593	     13.70596231	    -13.55572059	      5.30309664
      4.75500000	    -13.83564388	     10.24724563	     -6.01471934	      0.66600094	     -0.01216995	     -0.03627459	     24.15944251	    -16.37699573	     -3.34322962	    -62.50572009	    -20.95332888	     11.89402839	     49.56821152	     20.75359080	     11.04377492	    -13.74389111	     -5.88513292	     -9.62213535	      5.38035743	     10.22777316	     13.46421040	    -13.35040953	      4.82660604
      4.76000000	    -13.78651046	     10.00231674	     -5.82805862	      0.67148178	     -0.01152513	     -0.03723537	     24.64602425	    -16.12212555	     -3.34518270	    -62.91482777	    -20.45446969	     12.59709475	     49.95323259	     20.26317531	     10.98610603	    -13.46791539	     -5.78994797	     -9.33787921	      5.47780023	     10.30927633	     13.37703738	    -13.09995358	      4.41737373
      4.76500000	    -13.68450954	      9.76353143	     -5.60026942	      0.67689131	     -0.01081961	     -0.03823880	     25.05140872	    -15.89549232	     -3.38315774	    -63.25351619	    -19.97674537	     13.29487341	     50.46195898	     19.70880513	     10.95434079	    -13.08707623	     -5.67935411	     -9.09871538	      5.54688710	     10.29776347	     13.21139447	    -12.88181985	      3.92150810
      4.77000000	    -13.49182191	      9.51521058	     -5.35287819	      0.68238708	     -0.01004964	     -0.03932104	     25.30995559	    -15.70086635	     -3.52168985	    -63.49772949	    -19.47454221	     13.74240161	     51.33568320	     19.03425666	     10.94508787	    -12.57122205	     -5.55587787	     -8.81714707	      5.44168196	     10.05611681	     12.95815271	    -12.65813246	      3.42840281
      4.77500000	    -13.40866305	      9.25749934	     -5.13119009	      0.68782051	     -0.00940793	     -0.04031203	     25.70677993	    -15.43936075	     -3.58296875	    -63.72358563	    -18.96723064	     14.24831242	     51.87553326	     18.49856375	     10.87979451	    -12.19635671	     -5.44969506	     -8.54500391	      5.47818074	      9.98743621	     12.83055484	    -12.40601329	      2.97761999
      4.78000000	    -13.34491567	      8.99047192	     -4.93006141	      0.69324068	     -0.00879825	     -0.04126934	     26.12494105	    -15.14692275	     -3.62296373	    -63.91091965	    -18.46354762	     14.72821658	     52.16637910	     17.98513273	     10.78845846	    -11.87696401	     -5.33363101	     -8.29331560	      5.53228698	     10.00027495	     12.73651410	    -12.13387863	      2.54717680
      4.78500000	    -13.18808067	      8.73202669	     -4.66185080	      0.69867550	     -0.00813396	     -0.04232593	     26.39634755	    -14.92501081	     -3.78442984	    -64.03663897	    -17.92487705	     15.03250994	     52.54695672	     17.36307907	     10.74247002	    -11.42688166	     -5.21977853	     -8.03375351	      5.49895302	      9.86441191	     12.52573890	    -11.89716564	      2.05146208
      4.79000000	    -13.13167448	      8.47008803	     -4.45291425	      0.70407264	     -0.00758761	     -0.04327331	     26.80574979	    -14.63478816	     -3.84252680	    -64.13357295	    -17.41937996	     15.35112665	     52.72550855	     16.86308427	     10.64536912	    -11.11281992	     -5.10609975	     -7.78892178	      5.55319538	      9.87118104	     12.44574256	    -11.62956321	      1.63604577
      4.79500000	    -13.04051241	      8.20433326	     -4.19445547	      0.70946273	     -0.00703237	     -0.04430091	     27.14607739	    -14.37622835	     -3.97586812	    -64.17878081	    -16.90967873	     15.55589144	     52.83978376	     16.32551549	     10.56120749	    -10.74421112	     -4.99867718	     -7.54136106	      5.59575777	      9.85073388	     12.31674319	    -11.37027077	      1.17206845
      4.80000000	    -12.92970735	      7.93994208	     -3.93931888	      0.71484836	     -0.00647328	     -0.04531617	     27.45581725	    -14.11888051	     -4.12137519	    -64.17728789	    -16.41057215	     15.64636499	     52.86312323	     15.76555337	     10.47466726	    -10.36570967	     -4.88699019	     -7.30068354	      5.60897864	      9.78826544	     12.17085686	    -11.11213920	      0.70867237
      4.80500000	    -12.83827861	      7.68038965	     -3.69806793	      0.72021383	     -0.00596661	     -0.04629814	     27.78857067	    -13.85189036	     -4.24886260	    -64.13657282	    -15.91953793	     15.67338160	     52.80044744	     15.23308892	     10.37825062	    -10.00622216	     -4.77984541	     -7.05857116	      5.62707619	      9.73840000	     12.05313524	    -10.85358136	      0.28636295
      4.81000000	    -12.74692905	      7.42248475	     -3.45002596	      0.72556194	     -0.00548230	     -0.04728729	     28.11102589	    -13.58929409	     -4.38845463	    -64.05084909	    -15.44062514	     15.63002933	     52.63892103	     14.70495240	     10.27948551	     -9.64515846	     -4.67656877	     -6.81949214	      5.64199056	      9.67757031	     11.93592223	    -10.59588979	     -0.14183345
      4.81500000	    -12.60335575	      7.19719591	     -3.20088087	      0.73089826	     -0.00500440	     -0.04827362	     28.37465292	    -13.37150756	     -4.53316064	    -63.94464184	    -14.92487796	     15.57741490	     52.18619185	     14.11764699	     10.21755399	     -9.23657109	     -4.56977245	     -6.57002027	      5.60061082	      9.49169506	     11.76557698	    -10.37743934	     -0.55057476
